<?xml version="1.0" encoding="utf-8"?>
<!-- Generator: Adobe Illustrator 16.0.0, SVG Export Plug-In . SVG Version: 6.00 Build 0)  -->
<!DOCTYPE svg PUBLIC "-//W3C//DTD SVG 1.1//EN" "http://www.w3.org/Graphics/SVG/1.1/DTD/svg11.dtd">
<svg version="1.1" id="Layer_1" xmlns="http://www.w3.org/2000/svg" xmlns:xlink="http://www.w3.org/1999/xlink" x="0px" y="0px"
	 width="150px" height="150px" viewBox="0 0 150 150" enable-background="new 0 0 150 150" xml:space="preserve">
<g>
	<path fill="#003D66" d="M145.02,136.582l-34.512-34.512c8.555-10.43,13.711-23.789,13.711-38.352
		c0-33.396-27.1-60.498-60.498-60.498c-33.428,0-60.498,27.1-60.498,60.498c0,33.398,27.07,60.498,60.498,60.498
		c14.561,0,27.89-5.127,38.32-13.682l34.512,34.48c2.344,2.344,6.123,2.344,8.467,0C147.363,142.705,147.363,138.896,145.02,136.582
		z M63.721,112.178c-26.748,0-48.486-21.738-48.486-48.457c0-26.719,21.738-48.486,48.486-48.486
		c26.718,0,48.486,21.768,48.486,48.486S90.439,112.178,63.721,112.178z"/>
</g>
<g>
	<path fill="#003D66" stroke="#003D66" stroke-width="3" stroke-miterlimit="10" d="M54.277,62.133L74.83,41.581
		c0.348-0.348,0.522-0.75,0.522-1.203s-0.175-0.854-0.522-1.202l-2.616-2.615c-0.348-0.349-0.75-0.523-1.201-0.523
		c-0.454,0-0.854,0.175-1.203,0.523l-24.371,24.37c-0.348,0.349-0.522,0.75-0.522,1.203c0,0.453,0.174,0.854,0.522,1.203
		l24.37,24.37c0.349,0.35,0.75,0.521,1.203,0.521c0.453,0,0.854-0.174,1.202-0.521l2.616-2.612c0.348-0.35,0.521-0.751,0.521-1.204
		s-0.174-0.854-0.521-1.201L54.277,62.133z"/>
</g>
</svg>
