<?xml version="1.0"?>
<svg xmlns="http://www.w3.org/2000/svg" id="icons" enable-background="new 0 0 64 64" height="512px" viewBox="0 0 64 64" width="512px"><g><path d="m63.382 6.075c-.122-.051-.252-.077-.382-.077h-62c-.014 0-.024.007-.038.008-.069.003-.135.023-.203.041-.06.015-.121.022-.176.048-.05.023-.09.061-.136.092-.063.042-.127.083-.177.139-.009.009-.021.012-.029.022-.03.035-.041.078-.065.116-.04.062-.08.12-.106.19-.026.068-.033.137-.043.207-.006.047-.027.088-.027.137v6.002 40.002 4c0 .553.447 1 1 1h62c.553 0 1-.447 1-1v-4-40.002-6.002c0-.13-.026-.26-.077-.382-.101-.245-.296-.439-.541-.541zm-61.382 6.925v-3.828l5.007 4.291v33.074l-5.007 4.291zm25.993 22.643 2.767 3.596-5.259 6.758h-5.476zm12.001-5.014 11.958 15.367h-23.917zm14.492 15.367-13.704-17.61c-.025-.032-.062-.049-.09-.077-.03-.031-.049-.07-.084-.098-.021-.017-.048-.021-.071-.035-.056-.037-.113-.063-.175-.088-.061-.024-.119-.048-.182-.06-.063-.013-.124-.013-.188-.013s-.124 0-.187.013c-.063.012-.122.035-.183.06-.062.025-.118.051-.175.088-.022.015-.049.019-.07.035-.035.027-.053.066-.084.098-.028.028-.064.045-.09.077l-7.177 9.222-3.243-4.215c-.025-.033-.063-.051-.092-.08-.032-.033-.052-.074-.09-.104-.021-.016-.045-.019-.066-.032-.057-.038-.116-.063-.179-.088-.06-.024-.116-.048-.178-.06-.063-.012-.123-.012-.187-.012-.065 0-.128 0-.191.012-.061.012-.115.035-.173.059-.064.025-.126.051-.185.09-.02.014-.043.017-.063.031-.036.027-.055.066-.085.098-.031.031-.07.049-.098.085l-9.7 12.604h-8.489v-31.992h46.987v31.992zm2.094-33.992h-48.204l-4.674-4.006h56.884zm-48.204 35.992h9.589c.009 0 .017.004.024.004.006 0 .011-.004.018-.004h38.573l4.006 4.006h-56.884zm53.624-34.996v37.588l-4.006-4.006v-33.164l4.006-4.006zm-60 43.002v-2h60v2z" data-original="#000000" class="active-path" data-old_color="#000000" fill="#003D66"/><path d="m17.502 19.004c-1.93 0-3.5 1.57-3.5 3.5s1.57 3.5 3.5 3.5 3.5-1.57 3.5-3.5-1.57-3.5-3.5-3.5zm0 5c-.827 0-1.5-.673-1.5-1.5s.673-1.5 1.5-1.5 1.5.673 1.5 1.5-.673 1.5-1.5 1.5z" data-original="#000000" class="active-path" data-old_color="#000000" fill="#003D66"/></g> </svg>
