<?xml version="1.0" encoding="utf-8"?>
<!-- Generator: Adobe Illustrator 16.0.0, SVG Export Plug-In . SVG Version: 6.00 Build 0)  -->
<!DOCTYPE svg PUBLIC "-//W3C//DTD SVG 1.1//EN" "http://www.w3.org/Graphics/SVG/1.1/DTD/svg11.dtd">
<svg version="1.1" id="Capa_1" xmlns="http://www.w3.org/2000/svg" xmlns:xlink="http://www.w3.org/1999/xlink" x="0px" y="0px"
	 width="90px" height="70.988px" viewBox="0 9.506 90 70.988" enable-background="new 0 9.506 90 70.988" xml:space="preserve">
<g display="none">
	<path id="video" display="inline" fill="#666666" d="M84.375,16.875h-2.494c-1.477,0-2.895,0.582-3.949,1.62l-7.619,7.515V22.5
		c0-4.66-3.779-8.438-8.438-8.438H8.438C3.786,14.063,0,17.845,0,22.5v19.609V67.5c0,4.658,3.777,8.438,8.438,8.438h53.438
		c4.658,0,8.438-3.779,8.438-8.438v-3.434l7.619,7.515c1.055,1.038,2.473,1.62,3.949,1.62h2.494c3.105,0,5.625-2.518,5.625-5.625
		V22.5C90,19.392,87.48,16.875,84.375,16.875z M8.438,70.313c-1.553,0-2.813-1.263-2.813-2.813v-45c0-1.555,1.257-2.813,2.813-2.813
		h53.438c1.55,0,2.813,1.26,2.813,2.813v45c0,1.55-1.263,2.813-2.813,2.813H8.438z M84.375,67.576h-2.494h-0.318l-11.25-11.25V56.25
		L67.5,53.438V36.563L81.563,22.5h0.318h2.494V67.576z"/>
</g>
<g>
	<path fill="#666666" d="M88.574,9.506H1.426C0.639,9.506,0,10.145,0,10.933v68.137c0,0.787,0.639,1.426,1.426,1.426h87.148
		c0.787,0,1.426-0.639,1.426-1.426V10.933C90,10.145,89.361,9.506,88.574,9.506z M81.443,69.126l-19.61-20.31
		c-0.217-0.225-0.571-0.238-0.806-0.033L47.426,60.756L30.04,39.35c-0.113-0.141-0.278-0.22-0.465-0.216
		c-0.181,0.004-0.349,0.091-0.456,0.234L8.556,66.961V18.063h72.889v51.063H81.443z"/>
	<path fill="#666666" d="M59.906,38.659c3.861,0,6.996-3.132,6.996-6.996c0-3.863-3.135-6.997-6.996-6.997
		c-3.863,0-6.994,3.133-6.994,6.997S56.043,38.659,59.906,38.659z"/>
</g>
<g display="none">
	<g display="inline">
		<g>
			<path fill="#666666" d="M45.433,57.778c-0.939-0.384-2.016,0.068-2.4,1.008l-6.35,15.54L33.292,68.8
				c-0.409-0.668-1.191-1.004-1.961-0.838l-6.9,1.503l6.553-16.036c0.385-0.94-0.067-2.017-1.01-2.401
				c-0.94-0.382-2.015,0.065-2.399,1.008l-7.876,19.277c-0.259,0.634-0.146,1.354,0.294,1.881c0.439,0.522,1.132,0.759,1.801,0.614
				l9.044-1.969l4.605,7.51c0.336,0.55,0.933,0.88,1.568,0.88c0.051,0,0.1-0.001,0.149-0.006c0.692-0.056,1.293-0.496,1.556-1.139
				l7.727-18.903C46.826,59.238,46.374,58.162,45.433,57.778z"/>
		</g>
	</g>
	<g display="inline">
		<g>
			<path fill="#666666" d="M71.109,71.313l-8.377-20.502c-0.387-0.941-1.461-1.395-2.401-1.01c-0.94,0.386-1.394,1.46-1.009,2.4
				l7.053,17.264l-6.898-1.504c-0.771-0.165-1.553,0.171-1.961,0.838l-3.392,5.527l-6.101-14.928
				c-0.385-0.942-1.459-1.393-2.4-1.009c-0.94,0.384-1.395,1.46-1.01,2.4l7.477,18.292c0.264,0.643,0.863,1.081,1.557,1.14
				c0.049,0.005,0.1,0.006,0.148,0.006c0.637,0,1.23-0.33,1.568-0.88l4.605-7.51l9.043,1.969c0.672,0.145,1.363-0.092,1.803-0.614
				C71.254,72.667,71.368,71.945,71.109,71.313z"/>
		</g>
	</g>
	<g display="inline">
		<g>
			<path fill="#666666" d="M70.766,35.567l-3.315-4.55l1.13-5.515c0.168-0.82-0.239-1.65-0.991-2.021l-5.049-2.487l-1.563-5.409
				c-0.231-0.805-0.979-1.366-1.815-1.329l-5.626,0.144l-3.898-4.063c-0.58-0.604-1.494-0.739-2.226-0.333l-4.917,2.744
				l-5.339-1.787C36.363,10.694,35.488,11,35.029,11.7l-3.077,4.714l-5.558,0.899c-0.826,0.135-1.459,0.81-1.539,1.643L24.32,24.56
				l-4.501,3.379c-0.672,0.503-0.917,1.394-0.601,2.17l2.131,5.209l-2.417,5.085c-0.358,0.754-0.163,1.659,0.478,2.198l4.308,3.624
				l0.222,5.626c0.033,0.836,0.627,1.545,1.445,1.725l5.499,1.207l2.812,4.876c0.418,0.729,1.273,1.078,2.082,0.856l5.431-1.486
				l4.757,3.011c0.303,0.192,0.645,0.286,0.983,0.286c0.454,0,0.907-0.169,1.258-0.494l4.116-3.84l5.611,0.456
				c0.838,0.069,1.608-0.436,1.887-1.227l1.861-5.313l5.18-2.204c0.77-0.327,1.223-1.134,1.1-1.963l-0.82-5.568l3.563-4.358
				C71.234,37.167,71.26,36.243,70.766,35.567z M63.771,40.474c-0.328,0.4-0.473,0.923-0.396,1.435l0.731,4.965l-4.619,1.964
				c-0.477,0.204-0.848,0.599-1.016,1.087l-1.66,4.739l-5.006-0.409c-0.515-0.041-1.025,0.139-1.404,0.489l-3.672,3.425
				l-4.243-2.686c-0.297-0.189-0.639-0.286-0.984-0.286c-0.162,0-0.326,0.021-0.486,0.067l-4.843,1.325l-2.507-4.349
				c-0.26-0.45-0.693-0.769-1.201-0.879l-4.904-1.077l-0.199-5.017c-0.021-0.519-0.256-1.002-0.653-1.335l-3.843-3.231l2.156-4.535
				c0.223-0.469,0.236-1.009,0.041-1.487l-1.901-4.647l4.019-3.014c0.414-0.312,0.678-0.781,0.728-1.297l0.478-4.998l4.956-0.803
				c0.511-0.083,0.964-0.378,1.247-0.811l2.746-4.204l4.76,1.593c0.493,0.164,1.031,0.114,1.482-0.139l4.384-2.446l3.478,3.623
				c0.356,0.374,0.838,0.588,1.375,0.565l5.019-0.128l1.396,4.823c0.144,0.497,0.488,0.911,0.955,1.141l4.504,2.219l-1.01,4.919
				c-0.102,0.507,0.014,1.035,0.318,1.453l2.956,4.058L63.771,40.474z"/>
		</g>
	</g>
	<g display="inline">
		<g>
			<path fill="#666666" d="M44.628,19.172c-9.137,0-16.57,7.434-16.57,16.569c0,9.137,7.435,16.571,16.57,16.571
				c9.139,0,16.57-7.434,16.57-16.571C61.198,26.606,53.768,19.172,44.628,19.172z M44.628,49.856
				c-7.783,0-14.115-6.331-14.115-14.115c0-7.783,6.332-14.115,14.115-14.115c7.785,0,14.116,6.333,14.116,14.115
				C58.744,43.526,52.413,49.856,44.628,49.856z"/>
		</g>
	</g>
	<g display="inline">
		<g>
			<path fill="#666666" d="M55.066,32.588c-0.145-0.442-0.528-0.769-0.99-0.835l-5.566-0.809l-2.49-5.044
				c-0.207-0.418-0.631-0.686-1.101-0.686c-0.467,0-0.894,0.267-1.101,0.686l-2.49,5.044l-5.566,0.809
				c-0.463,0.066-0.847,0.392-0.99,0.835c-0.146,0.444-0.024,0.934,0.311,1.259l4.027,3.928l-0.95,5.543
				c-0.078,0.459,0.112,0.926,0.489,1.2c0.213,0.155,0.467,0.233,0.722,0.233c0.194,0,0.392-0.046,0.571-0.141l4.979-2.618
				l4.98,2.618c0.412,0.218,0.912,0.182,1.291-0.093s0.567-0.741,0.488-1.2l-0.949-5.543l4.026-3.928
				C55.091,33.521,55.212,33.033,55.066,32.588z M48.552,36.465c-0.288,0.282-0.421,0.688-0.354,1.086l0.641,3.729l-3.351-1.761
				c-0.355-0.188-0.782-0.188-1.141,0l-3.35,1.761l0.639-3.729c0.07-0.397-0.063-0.804-0.352-1.085l-2.711-2.643l3.744-0.543
				c0.399-0.059,0.746-0.31,0.925-0.672l1.675-3.395l1.675,3.395c0.181,0.362,0.524,0.613,0.925,0.672l3.744,0.543L48.552,36.465z"
				/>
		</g>
	</g>
</g>
<g>
	<path fill="#FF0000" d="M82.66,42.498c-8.449-8.45-22.203-8.45-30.654,0c-8.451,8.452-8.451,22.202,0,30.655
		c8.451,8.454,22.205,8.454,30.654,0C91.113,64.7,91.113,50.95,82.66,42.498z"/>
	<path fill="#FFFFFF" d="M80.303,70.645c-0.984,0.982-2.576,0.982-3.557,0l-9.337-9.333l-9.779,9.777
		c-0.983,0.979-2.577,0.979-3.558,0c-0.981-0.982-0.981-2.573,0-3.56l9.778-9.779l-9.336-9.333c-0.979-0.982-0.979-2.574,0-3.559
		c0.983-0.984,2.575-0.984,3.556,0l9.339,9.337l8.89-8.892c0.984-0.981,2.576-0.981,3.559,0c0.98,0.98,0.98,2.573,0,3.559
		l-8.894,8.888l9.339,9.34C81.281,68.068,81.281,69.661,80.303,70.645z"/>
</g>
</svg>
