<svg width="511.999" height="511.999" xmlns="http://www.w3.org/2000/svg">

 <g>
  <title>background</title>
  <rect fill="none" id="canvas_background" height="402" width="582" y="-1" x="-1"/>
 </g>
 <g>
  <title>Layer 1</title>
  <g id="svg_1">
   <g id="svg_2">
    <path id="svg_3" d="m321.356,63.796c-56.318,-28.458 -124.159,-17.577 -168.81,27.075c-51.895,51.894 -57.089,134.64 -12.081,192.474c1.591,2.044 3.969,3.114 6.373,3.114c1.732,0 3.477,-0.555 4.95,-1.702c3.517,-2.737 4.149,-7.806 1.413,-11.323c-40.019,-51.422 -35.394,-125.002 10.757,-171.153c39.71,-39.712 100.038,-49.39 150.122,-24.083c3.976,2.012 8.83,0.414 10.84,-3.563c2.009,-3.977 0.415,-8.83 -3.564,-10.839z"/>
   </g>
  </g>
  <g id="svg_4">
   <g id="svg_5">
    <path id="svg_6" d="m385.787,128.239c-2.01,-3.977 -6.861,-5.573 -10.841,-3.565c-3.977,2.009 -5.574,6.861 -3.565,10.84c25.289,50.076 15.606,110.396 -24.095,150.096c-46.152,46.15 -119.731,50.774 -171.153,10.757c-3.518,-2.736 -8.586,-2.104 -11.323,1.412c-2.737,3.517 -2.104,8.586 1.413,11.323c26.344,20.502 57.855,30.586 89.266,30.586c37.547,0 74.952,-14.411 103.209,-42.668c44.641,-44.64 55.527,-112.468 27.089,-168.781z"/>
   </g>
  </g>
  <g id="svg_7">
   <g id="svg_8">
    <path id="svg_9" d="m364.94,97.508c-1.999,-2.262 -4.099,-4.496 -6.242,-6.638c-2.143,-2.143 -4.376,-4.243 -6.638,-6.242c-3.339,-2.952 -8.439,-2.636 -11.388,0.703c-2.953,3.338 -2.639,8.437 0.7,11.388c2.015,1.78 4.005,3.652 5.915,5.561c1.908,1.91 3.78,3.899 5.561,5.914c1.594,1.804 3.816,2.725 6.049,2.725c1.899,0 3.805,-0.667 5.34,-2.023c3.34,-2.95 3.654,-8.049 0.703,-11.388z"/>
   </g>
  </g>
  <g id="svg_10">
   <g id="svg_11">
    <path id="svg_12" d="m446.066,208.41c5.38,-8.827 5.38,-19.791 -0.002,-28.616l-10.615,-17.407c-1.398,-2.294 -1.939,-5.018 -1.521,-7.67l3.164,-20.103c1.613,-10.245 -2.596,-20.398 -10.982,-26.499l-16.451,-11.966c-2.175,-1.583 -3.721,-3.892 -4.354,-6.506l-4.791,-19.799c-2.432,-10.057 -10.191,-17.815 -20.247,-20.249l-19.8,-4.792c-2.614,-0.633 -4.925,-2.179 -6.506,-4.354l-11.968,-16.455c-6.1,-8.386 -16.254,-12.597 -26.496,-10.983l-20.11,3.164c-2.652,0.417 -5.377,-0.123 -7.669,-1.521l-17.41,-10.618c-8.826,-5.382 -19.79,-5.381 -28.616,0l-17.408,10.615c-2.292,1.399 -5.015,1.937 -7.67,1.521l-20.104,-3.164c-10.242,-1.612 -20.397,2.597 -26.497,10.983l-11.966,16.451c-1.583,2.175 -3.893,3.721 -6.508,4.354l-19.799,4.791c-10.055,2.432 -17.815,10.191 -20.249,20.247l-4.792,19.8c-0.633,2.614 -2.178,4.925 -4.354,6.506l-16.455,11.968c-8.386,6.099 -12.594,16.251 -10.983,26.496l3.164,20.111c0.417,2.653 -0.123,5.377 -1.521,7.669l-10.617,17.411c-5.38,8.826 -5.38,19.79 0.001,28.615l10.615,17.408c1.398,2.294 1.939,5.018 1.521,7.67l-3.164,20.104c-1.613,10.244 2.596,20.398 10.982,26.498l16.451,11.966c2.175,1.581 3.721,3.892 4.354,6.506l4.791,19.799c2.432,10.057 10.191,17.815 20.247,20.249l8.268,2.001l-55.954,124.814c-1.189,2.653 -0.86,5.739 0.863,8.081c1.722,2.342 4.569,3.577 7.457,3.231l45.022,-5.383l25.936,37.191c1.518,2.175 3.995,3.453 6.616,3.453c0.251,0 0.505,-0.012 0.757,-0.035c2.894,-0.272 5.419,-2.081 6.608,-4.732l57.145,-127.479l7.241,4.415c4.413,2.691 9.36,4.036 14.308,4.036c4.948,0 9.895,-1.346 14.308,-4.036l7.502,-4.574l57.217,127.638c1.189,2.653 3.713,4.46 6.608,4.732c0.253,0.024 0.506,0.036 0.757,0.036c2.621,0 5.099,-1.278 6.616,-3.453l25.936,-37.191l45.022,5.383c2.886,0.343 5.735,-0.889 7.457,-3.231c1.722,-2.342 2.053,-5.428 0.863,-8.081l-55.983,-124.883l7.957,-1.925c10.055,-2.432 17.815,-10.191 20.249,-20.247l4.792,-19.8c0.633,-2.614 2.179,-4.925 4.354,-6.506l16.455,-11.968c8.386,-6.099 12.594,-16.251 10.983,-26.496l-3.164,-20.111c-0.417,-2.653 0.123,-5.377 1.521,-7.669l10.618,-17.411zm-277.658,279.217l-20.554,-29.474c-1.704,-2.444 -4.618,-3.752 -7.576,-3.396l-35.679,4.266l50.979,-113.723c0.932,0.685 1.768,1.506 2.457,2.455l11.968,16.455c1.137,1.563 2.415,2.98 3.808,4.242l-26.833,59.857c-1.822,4.067 -0.004,8.84 4.062,10.663c1.072,0.481 2.193,0.708 3.295,0.708c3.082,0 6.026,-1.776 7.367,-4.77l26.738,-59.644c2.631,0.361 5.34,0.355 8.059,-0.073l20.11,-3.164c1.204,-0.189 2.421,-0.172 3.606,0.024l-51.807,115.574zm239.324,-28.606l-35.68,-4.264c-2.961,-0.355 -5.872,0.952 -7.576,3.396l-20.554,29.474l-51.829,-115.619c1.087,-0.148 2.196,-0.148 3.293,0.024l20.103,3.164c2.829,0.445 5.648,0.431 8.379,0.024l26.758,59.692c1.343,2.995 4.285,4.77 7.367,4.77c1.103,0 2.224,-0.227 3.295,-0.708c4.066,-1.822 5.885,-6.597 4.062,-10.663l-26.935,-60.085c1.299,-1.206 2.5,-2.541 3.571,-4.013l11.966,-16.451c0.754,-1.037 1.678,-1.926 2.716,-2.645l51.064,113.904zm24.555,-259.013l-10.617,17.411c-3.385,5.554 -4.695,12.152 -3.684,18.578l3.164,20.11c0.665,4.229 -1.073,8.42 -4.534,10.938l-16.456,11.969c-5.267,3.832 -9.013,9.429 -10.545,15.76l-4.792,19.8c-1.005,4.151 -4.207,7.354 -8.359,8.359l-19.8,4.791c-6.332,1.532 -11.93,5.278 -15.762,10.546l-11.966,16.451c-2.518,3.463 -6.708,5.199 -10.939,4.533l-20.104,-3.164c-6.427,-1.011 -13.026,0.297 -18.581,3.684l-17.407,10.615c-3.643,2.22 -8.171,2.22 -11.812,0l-17.411,-10.616c-4.33,-2.641 -9.294,-4.017 -14.317,-4.017c-1.42,0 -2.847,0.11 -4.262,0.333l-20.111,3.164c-4.23,0.666 -8.42,-1.073 -10.938,-4.534l-11.969,-16.455c-3.832,-5.267 -9.429,-9.013 -15.76,-10.545l-19.8,-4.792c-4.151,-1.005 -7.354,-4.207 -8.359,-8.359l-4.791,-19.799c-1.532,-6.332 -5.277,-11.931 -10.546,-15.763l-16.45,-11.967c-3.462,-2.518 -5.199,-6.71 -4.533,-10.939l3.164,-20.104c1.011,-6.427 -0.297,-13.025 -3.684,-18.58l-10.615,-17.409c-2.221,-3.643 -2.221,-8.17 0,-11.812l10.617,-17.411c3.386,-5.554 4.695,-12.152 3.684,-18.578l-3.164,-20.11c-0.665,-4.229 1.073,-8.42 4.534,-10.938l16.456,-11.969c5.267,-3.832 9.013,-9.429 10.545,-15.76l4.792,-19.8c1.005,-4.151 4.207,-7.354 8.359,-8.359l19.8,-4.791c6.332,-1.532 11.93,-5.278 15.761,-10.546l11.966,-16.451c2.518,-3.462 6.708,-5.201 10.939,-4.534l20.104,3.164c6.428,1.013 13.027,-0.297 18.581,-3.684l17.407,-10.615c3.643,-2.22 8.171,-2.22 11.812,0l17.411,10.616c5.554,3.388 12.154,4.697 18.579,3.685l20.111,-3.164c4.228,-0.663 8.42,1.073 10.938,4.534l11.969,16.455c3.832,5.267 9.429,9.013 15.76,10.545l19.8,4.792c4.151,1.005 7.354,4.207 8.359,8.359l4.791,19.799c1.532,6.332 5.277,11.931 10.546,15.763l16.451,11.966c3.462,2.518 5.199,6.71 4.533,10.939l-3.164,20.104c-1.011,6.427 0.297,13.025 3.684,18.58l10.615,17.409c2.222,3.643 2.222,8.17 0,11.813z"/>
   </g>
  </g>
  <g id="svg_13">
   <g id="svg_14">
    <path id="svg_15" d="m350.416,168.997c-1.778,-5.474 -6.433,-9.296 -12.149,-9.974l-48.551,-5.757l-20.478,-44.395c-2.411,-5.226 -7.484,-8.473 -13.24,-8.473c-5.755,0 -10.829,3.247 -13.24,8.473l-20.478,44.396l-48.551,5.757c-5.716,0.678 -10.372,4.5 -12.149,9.974c-1.778,5.471 -0.258,11.3 3.966,15.207l35.895,33.195l-9.528,47.954c-1.121,5.646 1.075,11.254 5.732,14.636c2.569,1.866 5.55,2.811 8.55,2.811c2.439,0 4.889,-0.624 7.14,-1.884l42.662,-23.879l42.662,23.879c5.023,2.812 11.034,2.457 15.691,-0.926c4.657,-3.383 6.853,-8.992 5.731,-14.637l-9.528,-47.953l35.895,-33.195c4.226,-3.907 5.746,-9.735 3.968,-15.209zm-54.134,39.623c-2.06,1.905 -2.982,4.744 -2.436,7.496l9.75,49.071l-43.658,-24.437c-1.224,-0.685 -2.582,-1.028 -3.941,-1.028c-1.359,0 -2.716,0.342 -3.941,1.028l-43.658,24.437l9.75,-49.071c0.548,-2.753 -0.375,-5.591 -2.436,-7.496l-36.732,-33.97l49.686,-5.891c2.786,-0.33 5.201,-2.085 6.377,-4.632l20.955,-45.431l20.955,45.431c1.176,2.547 3.59,4.302 6.377,4.632l49.684,5.891l-36.732,33.97z"/>
   </g>
  </g>
  <g id="svg_16"/>
  <g id="svg_17"/>
  <g id="svg_18"/>
  <g id="svg_19"/>
  <g id="svg_20"/>
  <g id="svg_21"/>
  <g id="svg_22"/>
  <g id="svg_23"/>
  <g id="svg_24"/>
  <g id="svg_25"/>
  <g id="svg_26"/>
  <g id="svg_27"/>
  <g id="svg_28"/>
  <g id="svg_29"/>
  <g id="svg_30"/>
  <g stroke="null" id="svg_33">
   <path stroke="null" id="svg_31" d="m433.691311,278.016978c-47.055613,-46.475291 -123.656739,-46.475291 -170.723491,0c-47.066752,46.486291 -47.066752,122.111763 0,168.603554c47.066752,46.497291 123.667877,46.497291 170.723491,0c47.077891,-46.491791 47.077891,-122.117263 0,-168.603554z" fill="#FF0000"/>
   <path stroke="null" id="svg_32" d="m420.564304,432.826446c-5.480261,5.401034 -14.346699,5.401034 -19.810252,0l-52.001215,-51.331821l-54.462876,53.773836c-5.474691,5.384534 -14.352268,5.384534 -19.815821,0c-5.463553,-5.401034 -5.463553,-14.151588 0,-19.580122l54.457307,-53.784836l-51.995645,-51.331821c-5.452414,-5.401034 -5.452414,-14.157088 0,-19.574622c5.474691,-5.412034 14.34113,-5.412034 19.804682,0l52.012353,51.353821l49.511706,-48.906306c5.480261,-5.395534 14.346699,-5.395534 19.82139,0c5.457983,5.390034 5.457983,14.151588 0,19.574622l-49.533983,48.884306l52.012353,51.370321c5.446845,5.379034 5.446845,14.140588 0,19.552622z" fill="#FFFFFF"/>
  </g>
 </g>
</svg>