<?xml version="1.0" encoding="utf-8"?>
<!-- Generator: Adobe Illustrator 16.0.0, SVG Export Plug-In . SVG Version: 6.00 Build 0)  -->
<!DOCTYPE svg PUBLIC "-//W3C//DTD SVG 1.1//EN" "http://www.w3.org/Graphics/SVG/1.1/DTD/svg11.dtd">
<svg version="1.1" id="Layer_1" xmlns="http://www.w3.org/2000/svg" xmlns:xlink="http://www.w3.org/1999/xlink" x="0px" y="0px"
	 width="512px" height="512px" viewBox="-206 -0.25 512 512" enable-background="new -206 -0.25 512 512" xml:space="preserve">
<g>
	<path fill="#F2F2F2" d="M-102.91,490.958c0,8.207,66.777,14.862,149.146,14.862c82.374,0,149.151-6.655,149.151-14.862
		c0-8.213-66.777-14.863-149.151-14.863C-36.133,476.095-102.91,482.745-102.91,490.958z"/>
	<path fill="#FFFFFF" d="M51.221,203.031l-168.167-59.495v220.328l168.167,59.515l157.386-64.91V138.131L51.221,203.031z"/>
	<path fill="#48A246" d="M51.256,424.708l-169.447-59.963V141.777L51.188,201.7l158.662-65.428v223.023l-0.771,0.318L51.256,424.708
		z M-115.702,362.988l166.891,59.063l156.174-64.418V139.99L51.256,204.363l-0.448-0.159l-166.51-58.908V362.988z"/>
	<path fill="#FFFFFF" d="M-116.946,143.537L51.221,80.804l157.386,57.327l-157.386,64.9L-116.946,143.537z"/>
	<path fill="#48A246" d="M51.256,204.363l-0.448-0.159l-171.397-60.637L51.216,79.477l160.825,58.582L51.256,204.363z
		 M-113.303,143.504L51.188,201.7l153.979-63.497L51.226,82.13L-113.303,143.504z"/>
	<path fill="#F2F2F2" d="M-115.886,145.699l-39.961,88.892l39.961,14.258v112.936l168.167,59.515V82.966L-115.886,145.699z"/>
	<path fill="#D8EBD8" d="M-116.946,143.537l-39.961,88.892l173.565,61.917l34.563-91.313L-116.946,143.537z"/>
	<path fill="#48A246" d="M17.389,295.928l-175.987-62.78l40.987-91.167l170.447,60.301L17.389,295.928z M-155.22,231.709
		l171.146,61.053l33.682-88.981l-165.89-58.689L-155.22,231.709L-155.22,231.709z"/>
	<path fill="#D8EBD8" d="M208.606,138.131l45.35,83.474l-168.183,72.74l-34.553-91.313L208.606,138.131z"/>
	<path fill="#48A246" d="M85.067,296.002l-35.437-93.66l159.534-65.789l46.534,85.651L85.067,296.002z M52.813,203.721
		l33.662,88.967l165.738-71.685l-44.165-81.296L52.813,203.721z"/>
	<path fill="#48A246" d="M50.223,205.834h2.051v217.545h-2.051V205.834z"/>
	<path fill="#48A246" d="M89.836,369.499c-0.021,40.864,33.09,74.004,73.954,74.024c40.859,0.02,74.004-33.091,74.024-73.955
		c0-0.02,0-0.045,0-0.069c0-40.865-33.13-73.984-73.994-73.984C122.96,295.515,89.836,328.634,89.836,369.499L89.836,369.499z"/>
	<path fill="#FFFFFF" d="M212.435,340.142c-1.787-1.786-4.166-2.777-6.685-2.777h-0.011c-2.519,0.005-4.897,0.991-6.68,2.777
		l-45.075,45.136l-21.154-21.194c-3.533-3.563-9.795-3.573-13.384,0.016c-3.674,3.688-3.674,9.695,0,13.384l27.849,27.894
		c1.771,1.782,4.181,2.777,6.689,2.768h0.01c2.519,0,4.898-0.98,6.675-2.768l51.766-51.845
		C216.117,349.838,216.117,343.835,212.435,340.142z"/>
	<path fill="#D8EBD8" d="M80.249,122.547c0,0-5.5,18.414-16.267,21.044c0,0,13.639,5.5,16.267,18.894c0,0,2.15-19.611,17.699-20.089
		C97.948,142.396,80.966,133.308,80.249,122.547z M144.95,69.181c0,0-2.688,9.537-7.77,10.851c0,0,6.276,2.961,7.77,9.865
		c0,0,0.901-10.194,8.367-10.194C153.317,79.704,145.249,74.771,144.95,69.181z M-60.657,44.951c0,0-4.066,14.111-12.436,16.022
		c0,0,10.283,4.066,12.436,14.589c0,0,1.675-15.067,13.394-15.306C-47.023,60.257-60.176,53.321-60.657,44.951z"/>
	<path fill="#48A246" d="M80.588,170.671l-1.563-7.946c-2.464-12.551-15.375-17.926-15.51-17.981l-3.563-1.446l3.738-0.916
		c9.939-2.429,15.315-20.014,15.365-20.191l1.98-6.598l0.458,6.871c0.657,9.942,16.874,18.748,17.043,18.834l4.092,2.198
		l-4.645,0.145c-14.271,0.438-16.41,18.222-16.5,18.979L80.588,170.671z M67.099,143.748c3.574,2.006,9.825,6.394,12.951,13.837
		c1.593-5.438,5.436-13.85,14.195-15.955c-4.226-2.72-11.527-8.173-14.226-14.778C77.97,131.917,73.688,140.418,67.099,143.748z
		 M145.468,98.185l-1.736-8.023c-1.345-6.232-7.028-8.977-7.083-9.002l-3.111-1.468l3.33-0.863c3.599-0.931,6.191-7.521,6.884-9.982
		l2.041-7.229l0.397,7.501c0.22,4.037,5.694,8.245,7.78,9.527l3.758,2.304h-4.41c-6.257,0-7.117,8.969-7.128,9.059L145.468,98.185z
		 M139.749,80.154c1.483,1.068,3.47,2.847,4.908,5.451c0.965-2.673,2.712-5.406,5.584-6.568c-1.752-1.386-4.031-3.504-5.386-6.005
		C143.806,75.433,142.108,78.472,139.749,80.154z M-60.301,83.499l-1.576-7.688c-1.986-9.711-11.58-13.643-11.677-13.683
		l-3.708-1.479l3.892-0.891c7.551-1.725,11.478-15.019,11.518-15.153l2.021-6.991l0.416,7.267c0.249,4.338,4.639,9.32,12.364,14.032
		c0.525,0.321,1.247,0.759,0.988,1.68l-0.254,0.908h-0.948c-10.453,0.214-12.09,13.628-12.155,14.201L-60.301,83.499z
		 M-70.064,61.123c2.69,1.593,6.832,4.718,9.208,9.857c1.314-4.084,4.176-9.758,10.137-11.465
		c-5.072-3.427-8.487-6.963-10.109-10.443C-62.429,52.897-65.458,58.582-70.064,61.123z"/>
	<path fill="#D8EBD8" d="M75.271,22.229H54.884c-1.53,0-2.548-1.272-2.548-2.549c0-1.274,1.018-2.546,2.548-2.546h20.388
		c1.523,0,2.549,1.018,2.549,2.546C77.82,20.958,76.795,22.229,75.271,22.229z"/>
	<path fill="#48A246" d="M75.271,23.474H54.884c-2.09,0-3.793-1.7-3.793-3.793c0-2.09,1.703-3.79,3.793-3.79h20.388
		c2.195,0,3.793,1.593,3.793,3.79C79.064,21.774,77.362,23.474,75.271,23.474z M54.884,18.379c-0.806,0-1.304,0.674-1.304,1.301
		c0,0.627,0.498,1.304,1.304,1.304h20.388c0.802,0,1.304-0.677,1.304-1.304c0-0.838-0.468-1.301-1.304-1.301H54.884z"/>
	<path fill="#D8EBD8" d="M62.529,29.872V9.49c0-1.274,1.016-2.549,2.549-2.549c1.522,0,2.543,1.021,2.543,2.549v20.382
		c0,1.277-1.021,2.551-2.543,2.551C63.545,32.423,62.529,31.149,62.529,29.872z"/>
	<path fill="#48A246" d="M65.078,33.667c-2.096,0-3.793-1.703-3.793-3.795V9.49c0-2.091,1.697-3.793,3.793-3.793
		c2.229,0,3.787,1.561,3.787,3.793v20.382C68.865,31.965,67.168,33.667,65.078,33.667z M65.078,8.186
		c-0.807,0-1.305,0.677-1.305,1.304v20.382c0,0.63,0.498,1.307,1.305,1.307c0.801,0,1.299-0.677,1.299-1.307V9.49
		C66.377,8.648,65.914,8.186,65.078,8.186z"/>
</g>
</svg>
