<svg id="Layer_5" enable-background="new 0 0 64 64" height="512" viewBox="0 0 64 64" width="512" xmlns="http://www.w3.org/2000/svg"><g><path d="m58 27h-15v-2c1.103 0 2-.897 2-2v-4h2c2.206 0 4-1.794 4-4s-1.794-4-4-4h-17.54c-1.1-1.224-2.689-2-4.46-2h-18c-3.309 0-6 2.691-6 6s2.691 6 6 6h18c1.771 0 3.36-.776 4.46-2h3.54v4c0 1.103.897 2 2 2v2h-9.343c-1.336 0-2.592.52-3.536 1.464l-4.535 4.536h-3.424l-5.162-1.721v-.279c0-1.654-1.346-3-3-3h-2c-1.654 0-3 1.346-3 3v20c0 1.654 1.346 3 3 3h2c1.654 0 3-1.346 3-3v-.279l5.162-1.721h3.424l4.535 4.536c.944.944 2.2 1.464 3.536 1.464h32.343c2.757 0 5-2.243 5-5v-18c0-2.757-2.243-5-5-5zm-15-4h-8v-6h8zm-18-4h-18c-2.206 0-4-1.794-4-4s1.794-4 4-4h18c2.206 0 4 1.794 4 4s-1.794 4-4 4zm8-2h-2.35c.223-.627.35-1.298.35-2s-.128-1.373-.35-2h16.35c1.103 0 2 .897 2 2s-.897 2-2 2h-2c0-1.103-.897-2-2-2h-8c-1.103 0-2 .897-2 2zm4 8h4v2h-4zm-22 10h2v12h-2zm-8 16c0 .551-.448 1-1 1h-2c-.552 0-1-.449-1-1v-20c0-.551.448-1 1-1h2c.552 0 1 .449 1 1zm2-17.612 4 1.333v12.559l-4 1.333zm16 19.534v-16.922c0-.551.448-1 1-1h28c.552 0 1 .449 1 1v17h-29.343c-.224 0-.443-.03-.657-.078zm36-2.922c0 1.654-1.346 3-3 3h-1v-17c0-1.654-1.346-3-3-3h-28c-1.654 0-3 1.346-3 3v15.586l-4-4v-13.172l4.535-4.536c.567-.566 1.32-.878 2.122-.878h32.343c1.654 0 3 1.346 3 3z"/><path d="m27 51h14v-14h-14zm2-12h10v10h-10z"/><path d="m43 51h10v-6h-10zm2-4h6v2h-6z"/><path d="m43 37h2v2h-2z"/><path d="m47 37h2v2h-2z"/><path d="m51 37h2v2h-2z"/></g></svg>