<svg width="64" height="64" xmlns="http://www.w3.org/2000/svg">

 <g>
  <title>background</title>
  <rect fill="none" id="canvas_background" height="402" width="582" y="-1" x="-1"/>
 </g>
 <g>
  <title>Layer 1</title>
  <g id="svg_1">
   <path id="svg_2" d="m58,27l-15,0l0,-2c1.103,0 2,-0.897 2,-2l0,-4l2,0c2.206,0 4,-1.794 4,-4s-1.794,-4 -4,-4l-17.54,0c-1.1,-1.224 -2.689,-2 -4.46,-2l-18,0c-3.309,0 -6,2.691 -6,6s2.691,6 6,6l18,0c1.771,0 3.36,-0.776 4.46,-2l3.54,0l0,4c0,1.103 0.897,2 2,2l0,2l-9.343,0c-1.336,0 -2.592,0.52 -3.536,1.464l-4.535,4.536l-3.424,0l-5.162,-1.721l0,-0.279c0,-1.654 -1.346,-3 -3,-3l-2,0c-1.654,0 -3,1.346 -3,3l0,20c0,1.654 1.346,3 3,3l2,0c1.654,0 3,-1.346 3,-3l0,-0.279l5.162,-1.721l3.424,0l4.535,4.536c0.944,0.944 2.2,1.464 3.536,1.464l32.343,0c2.757,0 5,-2.243 5,-5l0,-18c0,-2.757 -2.243,-5 -5,-5zm-15,-4l-8,0l0,-6l8,0l0,6zm-18,-4l-18,0c-2.206,0 -4,-1.794 -4,-4s1.794,-4 4,-4l18,0c2.206,0 4,1.794 4,4s-1.794,4 -4,4zm8,-2l-2.35,0c0.223,-0.627 0.35,-1.298 0.35,-2s-0.128,-1.373 -0.35,-2l16.35,0c1.103,0 2,0.897 2,2s-0.897,2 -2,2l-2,0c0,-1.103 -0.897,-2 -2,-2l-8,0c-1.103,0 -2,0.897 -2,2zm4,8l4,0l0,2l-4,0l0,-2zm-22,10l2,0l0,12l-2,0l0,-12zm-8,16c0,0.551 -0.448,1 -1,1l-2,0c-0.552,0 -1,-0.449 -1,-1l0,-20c0,-0.551 0.448,-1 1,-1l2,0c0.552,0 1,0.449 1,1l0,20zm2,-17.612l4,1.333l0,12.559l-4,1.333l0,-15.225zm16,19.534l0,-16.922c0,-0.551 0.448,-1 1,-1l28,0c0.552,0 1,0.449 1,1l0,17l-29.343,0c-0.224,0 -0.443,-0.03 -0.657,-0.078zm36,-2.922c0,1.654 -1.346,3 -3,3l-1,0l0,-17c0,-1.654 -1.346,-3 -3,-3l-28,0c-1.654,0 -3,1.346 -3,3l0,15.586l-4,-4l0,-13.172l4.535,-4.536c0.567,-0.566 1.32,-0.878 2.122,-0.878l32.343,0c1.654,0 3,1.346 3,3l0,18z"/>
   <path id="svg_3" d="m27,51l14,0l0,-14l-14,0l0,14zm2,-12l10,0l0,10l-10,0l0,-10z"/>
   <path id="svg_4" d="m43,51l10,0l0,-6l-10,0l0,6zm2,-4l6,0l0,2l-6,0l0,-2z"/>
   <path id="svg_5" d="m43,37l2,0l0,2l-2,0l0,-2z"/>
   <path id="svg_6" d="m47,37l2,0l0,2l-2,0l0,-2z"/>
   <path id="svg_7" d="m51,37l2,0l0,2l-2,0l0,-2z"/>
  </g>
  <g stroke="null" id="svg_21">
   <path stroke="null" id="svg_8" d="m60.415677,33.742987c-6.109205,-6.109982 -16.054288,-6.109982 -22.164939,0c-6.110651,6.111428 -6.110651,16.053707 0,22.165859c6.110651,6.112875 16.055734,6.112875 22.164939,0c6.112097,-6.112152 6.112097,-16.05443 0,-22.165859z" fill="#FF0000"/>
   <path stroke="null" id="svg_9" d="m58.711405,54.095374c-0.711499,0.710059 -1.862624,0.710059 -2.571954,0l-6.75129,-6.748457l-7.070886,7.069503c-0.710776,0.70789 -1.863347,0.70789 -2.572677,0c-0.70933,-0.710059 -0.70933,-1.860472 0,-2.574146l7.070163,-7.070949l-6.750567,-6.748457c-0.707884,-0.710059 -0.707884,-1.861195 0,-2.573423c0.710776,-0.711506 1.861901,-0.711506 2.571231,0l6.752736,6.75135l6.428078,-6.429581c0.711499,-0.709336 1.862624,-0.709336 2.5734,0c0.708607,0.708613 0.708607,1.860472 0,2.573423l-6.43097,6.426689l6.752736,6.753519c0.707161,0.707167 0.707161,1.859025 0,2.570531z" fill="#FFFFFF"/>
  </g>
 </g>
</svg>